<?xml version="1.0" encoding="UTF-8"?>
<svg width="512" height="512" viewBox="0 0 512 512" fill="none" xmlns="http://www.w3.org/2000/svg">
  <!-- 배경 원 -->
  <circle cx="256" cy="256" r="256" fill="#4A90E2"/>
  
  <!-- 유니콘 -->
  <path d="M256 106.667C204.8 106.667 160 151.467 160 202.667C160 253.867 204.8 298.667 256 298.667C307.2 298.667 352 253.867 352 202.667C352 151.467 307.2 106.667 256 106.667ZM256 266.667C220.8 266.667 192 237.867 192 202.667C192 167.467 220.8 138.667 256 138.667C291.2 138.667 320 167.467 320 202.667C320 237.867 291.2 266.667 256 266.667Z" fill="white"/>
  
  <!-- 뿔 -->
  <path d="M256 106.667L288 53.3333L256 80L224 53.3333L256 106.667Z" fill="white"/>
  
  <!-- 눈 -->
  <circle cx="224" cy="202.667" r="10.6667" fill="white"/>
  <circle cx="288" cy="202.667" r="10.6667" fill="white"/>
  
  <!-- 입 -->
  <path d="M240 240C240 240 256 256 272 240" stroke="white" stroke-width="10.6667" stroke-linecap="round"/>
</svg> 